<?xml version="1.0" encoding="UTF-8" standalone="no"?>
<!-- Generator: Gravit.io -->

<svg
   xmlns:dc="http://purl.org/dc/elements/1.1/"
   xmlns:cc="http://creativecommons.org/ns#"
   xmlns:rdf="http://www.w3.org/1999/02/22-rdf-syntax-ns#"
   xmlns:svg="http://www.w3.org/2000/svg"
   xmlns="http://www.w3.org/2000/svg"
   xmlns:sodipodi="http://sodipodi.sourceforge.net/DTD/sodipodi-0.dtd"
   xmlns:inkscape="http://www.inkscape.org/namespaces/inkscape"
   style="isolation:isolate"
   viewBox="0 0 600 600"
   width="600"
   height="600"
   id="svg3398"
   version="1.1"
   inkscape:version="0.91 r13725"
   sodipodi:docname="logo.svg">
  <metadata
     id="metadata3420">
    <rdf:RDF>
      <cc:Work
         rdf:about="">
        <dc:format>image/svg+xml</dc:format>
        <dc:type
           rdf:resource="http://purl.org/dc/dcmitype/StillImage" />
        <dc:title></dc:title>
      </cc:Work>
    </rdf:RDF>
  </metadata>
  <defs
     id="defs3418" />
  <sodipodi:namedview
     pagecolor="#ffffff"
     bordercolor="#666666"
     borderopacity="1"
     objecttolerance="10"
     gridtolerance="10"
     guidetolerance="10"
     inkscape:pageopacity="0"
     inkscape:pageshadow="2"
     inkscape:window-width="969"
     inkscape:window-height="669"
     id="namedview3416"
     showgrid="false"
     inkscape:zoom="0.5766992"
     inkscape:cx="300"
     inkscape:cy="267.60358"
     inkscape:window-x="0"
     inkscape:window-y="0"
     inkscape:window-maximized="0"
     inkscape:current-layer="svg3398" />
  <clipPath
     id="_clipPath_tymBwzCuxukZJIJObKsmehYLi7LjeS7O">
    <rect
       x="0"
       y="0"
       width="600"
       height="600"
       transform="matrix(1,0,0,1,0,0)"
       fill="rgb(255,255,255)"
       id="rect3401" />
  </clipPath>
  <g
     clip-path="url(#_clipPath_tymBwzCuxukZJIJObKsmehYLi7LjeS7O)"
     id="g3403">
    <g
       id="null">
      <g
         id="logo-background">
        <linearGradient
           id="_lgradient_2"
           x1="0.15003752"
           y1="299.92499"
           x2="276.83414"
           y2="656.94598"
           gradientTransform="scale(0.99974998,1.0002501)"
           gradientUnits="userSpaceOnUse">
          <stop
             offset="0%"
             stop-opacity="1"
             style="stop-color:rgb(72,110,122)"
             id="stop3408" />
          <stop
             offset="100%"
             stop-opacity="1"
             style="stop-color:rgb(40,85,99)"
             id="stop3410" />
        </linearGradient>
        <rect
           x="0.15"
           y="0"
           width="599.7"
           height="600"
           transform="matrix(0,-1,1,0,0,600)"
           id="rect3412"
           style="fill:url(#_lgradient_2)"
           fill="url(#_lgradient_2)" />
      </g>
    </g>
  </g>
  <g
     transform="matrix(1.2187697,0,0,1.1983012,-91.214228,-64.42353)"
     style="font-style:normal;font-weight:normal;font-size:70px;line-height:125%;font-family:sans-serif;letter-spacing:0px;word-spacing:0px;fill:#ffffff;fill-opacity:1;stroke:none;stroke-width:1px;stroke-linecap:butt;stroke-linejoin:miter;stroke-opacity:1"
     id="flowRoot3422">
    <path
       d="m 214.5127,190.65154 0,-41.25488 6.49414,0 0,40.16113 q 0,2.93946 1.6748,4.64844 1.70898,1.67481 4.44336,1.67481 l 0,5.81054 q -12.6123,0 -12.6123,-11.04004 z"
       style="font-style:normal;font-variant:normal;font-weight:normal;font-stretch:normal;font-family:'Trebuchet MS';-inkscape-font-specification:'Trebuchet MS';text-align:center;text-anchor:middle"
       id="path3528"
       inkscape:connector-curvature="0" />
    <path
       d="m 265.47461,183.33709 -26.38672,0 q 0,6.42578 3.52051,9.87793 3.11035,3.00781 7.99805,3.00781 5.57128,0 9.29687,-3.24707 l 2.73438,4.68262 q -1.50391,1.50391 -4.61426,2.59766 -3.89649,1.43554 -8.68164,1.43554 -6.9043,0 -11.72364,-4.68261 -5.36621,-5.16114 -5.36621,-13.87696 0,-9.05761 5.50293,-14.52636 4.92188,-4.8877 11.65528,-4.8877 7.82714,0 12.2705,4.40918 4.30664,4.23828 4.30664,11.24512 0,2.15332 -0.51269,3.96484 z M 249.71777,169.1867 q -4.34082,0 -7.28027,2.80274 -2.80273,2.66601 -3.17871,6.63085 l 20.26855,0 q 0,-3.93066 -2.46093,-6.5625 -2.7002,-2.87109 -7.34864,-2.87109 z"
       style="font-style:normal;font-variant:normal;font-weight:normal;font-stretch:normal;font-family:'Trebuchet MS';-inkscape-font-specification:'Trebuchet MS';text-align:center;text-anchor:middle"
       id="path3530"
       inkscape:connector-curvature="0" />
    <path
       d="m 299.38086,198.37615 -2.29004,3.31543 -3.24707,0 0,-52.29492 6.49414,0 0,17.70508 q 0.92285,-1.26465 3.45215,-2.32422 2.56348,-1.05957 5.02441,-1.05957 7.51953,0 12.16797,5.19531 4.68262,5.19532 4.68262,13.125 0,9.16016 -4.68262,14.42383 -4.68262,5.22949 -12.68066,5.22949 -2.59766,0 -5.12696,-0.95703 -2.49511,-0.99121 -3.79394,-2.3584 z m 0.95703,-26.31836 0,21.12305 q 0,0.54688 2.42676,1.81152 2.42676,1.23047 3.6914,1.23047 6.63086,0 9.50196,-3.17871 2.87109,-3.17871 2.87109,-10.66406 0,-6.2207 -3.34961,-9.70703 -3.34961,-3.48633 -9.02344,-3.48633 -1.19628,0 -3.3496,1.02539 -2.11915,1.02539 -2.76856,1.8457 z"
       style="font-style:normal;font-variant:normal;font-weight:normal;font-stretch:normal;font-family:'Trebuchet MS';-inkscape-font-specification:'Trebuchet MS';text-align:center;text-anchor:middle"
       id="path3532"
       inkscape:connector-curvature="0" />
    <path
       d="m 333.45801,190.65154 0,-41.25488 6.49414,0 0,40.16113 q 0,2.93946 1.6748,4.64844 1.70899,1.67481 4.44336,1.67481 l 0,5.81054 q -12.6123,0 -12.6123,-11.04004 z"
       style="font-style:normal;font-variant:normal;font-weight:normal;font-stretch:normal;font-family:'Trebuchet MS';-inkscape-font-specification:'Trebuchet MS';text-align:center;text-anchor:middle"
       id="path3534"
       inkscape:connector-curvature="0" />
    <path
       d="m 351.19727,182.61932 q 0,-8.47656 4.54589,-13.67188 4.58008,-5.22949 12.03125,-5.22949 7.86133,0 12.20215,5.02441 4.34082,4.99024 4.34082,13.87696 0,8.85254 -4.44336,13.97949 -4.44336,5.09277 -12.09961,5.09277 -7.82714,0 -12.20214,-5.16113 -4.375,-5.16113 -4.375,-13.91113 z m 6.83593,0 q 0,13.77441 9.74121,13.77441 4.5459,0 7.10938,-3.6914 2.59766,-3.69141 2.59766,-10.08301 0,-13.60352 -9.70704,-13.60352 -4.44336,0 -7.10937,3.62305 -2.63184,3.62305 -2.63184,9.98047 z"
       style="font-style:normal;font-variant:normal;font-weight:normal;font-stretch:normal;font-family:'Trebuchet MS';-inkscape-font-specification:'Trebuchet MS';text-align:center;text-anchor:middle"
       id="path3536"
       inkscape:connector-curvature="0" />
    <path
       d="m 389.71777,211.02264 3.52051,-5.19531 q 5.67383,3.79394 10.45899,3.79394 4.40918,0 6.93847,-1.53808 2.56348,-1.50391 2.56348,-3.75977 0,-4.44336 -6.42578,-4.44336 -1.09375,0 -3.96485,0.54688 -2.87109,0.54687 -4.47754,0.54687 -7.79296,0 -7.79296,-5.87891 0,-1.81152 1.81152,-3.28125 1.8457,-1.46972 4.5459,-2.11914 -7.72461,-3.62304 -7.72461,-12.57812 0,-5.74219 3.99902,-9.57031 3.99903,-3.82813 9.87793,-3.82813 5.40039,0 8.44238,2.22168 l 3.24707,-3.89648 4.23829,3.99902 -3.89649,2.93945 q 2.49512,3.24707 2.49512,8.47657 0,5.5371 -3.45215,9.29687 -3.45215,3.75977 -9.05762,4.30664 l -5.36621,0.54688 q -0.95703,0.10253 -2.56347,0.75195 -1.60645,0.61523 -1.60645,1.64062 0,1.40137 3.34961,1.40137 1.46973,0 4.58008,-0.51269 3.11035,-0.54688 4.61426,-0.54688 5.40039,0 8.4082,2.59766 3.04199,2.56347 3.04199,7.14355 0,5.0586 -4.5459,8.16895 -4.51172,3.11035 -11.45019,3.11035 -3.55469,0 -7.48535,-1.26465 -3.93067,-1.26465 -6.32325,-3.07617 z m 13.77442,-42.0752 q -3.38379,0 -5.53711,2.39258 -2.11914,2.39258 -2.11914,5.81055 0,3.82812 2.05078,6.35742 2.08496,2.49512 5.60547,2.49512 3.45215,0 5.40039,-2.42676 1.94824,-2.46094 1.94824,-6.42578 0,-3.41797 -2.11914,-5.81055 -2.08496,-2.39258 -5.22949,-2.39258 z"
       style="font-style:normal;font-variant:normal;font-weight:normal;font-stretch:normal;font-family:'Trebuchet MS';-inkscape-font-specification:'Trebuchet MS';text-align:center;text-anchor:middle"
       id="path3538"
       inkscape:connector-curvature="0" />
    <path
       d="m 232.52539,289.19158 -3.07617,0 -16.54297,-37.29004 9.36523,0 8.75,22.35352 9.39942,-22.35352 9.05762,0 -16.95313,37.29004 z"
       style="font-style:normal;font-variant:normal;font-weight:bold;font-stretch:normal;font-family:'Trebuchet MS';-inkscape-font-specification:'Trebuchet MS Bold';text-align:center;text-anchor:middle"
       id="path3540"
       inkscape:connector-curvature="0" />
    <path
       d="m 251.87109,270.11932 q 0,-8.37403 4.81934,-13.6377 4.85352,-5.26367 12.7832,-5.26367 8.33985,0 12.9541,5.05859 4.61426,5.0586 4.61426,13.84278 0,8.75 -4.71679,13.91113 -4.68262,5.16113 -12.85157,5.16113 -8.33984,0 -12.98828,-5.19531 -4.61426,-5.22949 -4.61426,-13.87695 z m 8.88672,0 q 0,12.09961 8.71582,12.09961 3.99903,0 6.32324,-3.14453 2.3584,-3.14454 2.3584,-8.95508 0,-11.92871 -8.68164,-11.92871 -3.99902,0 -6.35742,3.14453 -2.3584,3.14453 -2.3584,8.78418 z"
       style="font-style:normal;font-variant:normal;font-weight:bold;font-stretch:normal;font-family:'Trebuchet MS';-inkscape-font-specification:'Trebuchet MS Bold';text-align:center;text-anchor:middle"
       id="path3542"
       inkscape:connector-curvature="0" />
    <path
       d="m 309.97656,294.3869 q -1.36719,3.65722 -5.8789,6.0498 -4.47754,2.42676 -10.45899,2.42676 l 0,-7.55371 q 9.87793,0 9.87793,-4.95606 0,-3.28125 -2.73437,-10.04883 l -11.4502,-28.40332 8.85254,0 9.98047,25.29297 8.98926,-25.29297 8.85254,0 -16.03028,42.48536 z"
       style="font-style:normal;font-variant:normal;font-weight:bold;font-stretch:normal;font-family:'Trebuchet MS';-inkscape-font-specification:'Trebuchet MS Bold';text-align:center;text-anchor:middle"
       id="path3544"
       inkscape:connector-curvature="0" />
    <path
       d="m 351.60742,284.85076 q -1.16211,1.91407 -4.06738,3.14453 -2.87109,1.19629 -6.01563,1.19629 -5.91308,0 -9.29687,-2.93945 -3.38379,-2.97363 -3.38379,-8.4082 0,-6.35742 4.75098,-9.94629 4.78515,-3.58887 13.56933,-3.58887 1.50391,0 3.55469,0.5127 0,-6.45996 -8.16895,-6.45996 -4.81933,0 -8.0664,1.60644 l -1.8457,-6.63086 q 4.40917,-2.11914 10.49316,-2.11914 8.37402,0 12.27051,3.82813 3.89648,3.79394 3.89648,14.42382 l 0,7.82715 q 0,7.31446 2.93945,9.19434 -1.05957,1.8457 -2.35839,2.25586 -1.29883,0.44433 -2.97364,0.44433 -1.8457,0 -3.31543,-1.36718 -1.46972,-1.36719 -1.98242,-2.97364 z m -0.82031,-13.56933 q -2.1875,-0.44434 -3.28125,-0.44434 -10.11719,0 -10.11719,6.63086 0,4.92188 5.70801,4.92188 7.69043,0 7.69043,-7.69043 l 0,-3.41797 z"
       style="font-style:normal;font-variant:normal;font-weight:bold;font-stretch:normal;font-family:'Trebuchet MS';-inkscape-font-specification:'Trebuchet MS Bold';text-align:center;text-anchor:middle"
       id="path3546"
       inkscape:connector-curvature="0" />
    <path
       d="m 365.82617,297.9074 5.40039,-6.66504 q 4.47754,4.10157 9.98047,4.10157 3.69141,0 6.08399,-1.09375 2.39257,-1.09375 2.39257,-3.00782 0,-3.24707 -5.29785,-3.24707 -1.43554,0 -4.27246,0.3418 -2.83691,0.3418 -4.27246,0.3418 -8.81836,0 -8.81836,-6.32324 0,-1.81153 1.46973,-3.55469 1.46972,-1.74317 3.41797,-2.56348 -6.25489,-4.06738 -6.25489,-11.51855 0,-5.87891 4.30664,-9.70703 4.30664,-3.86231 10.59571,-3.86231 4.92187,0 8.2373,1.8457 l 3.34961,-3.89648 5.91309,5.36621 -4.06739,2.97363 q 2.11914,3.21289 2.11914,7.58789 0,6.25489 -3.82812,10.01465 -3.79395,3.72559 -9.60449,3.72559 -0.92285,0 -2.46094,-0.1709 l -1.40137,-0.20508 q -0.23925,0 -1.8457,0.75196 -1.57227,0.71777 -1.57227,1.5039 0,1.36719 2.3584,1.36719 1.05957,0 3.55469,-0.5127 2.49512,-0.51269 4.27246,-0.51269 12.47559,0 12.47559,10.01465 0,5.53711 -4.99024,8.68164 -4.99023,3.17871 -12.03125,3.17871 -8.4082,0 -15.20996,-4.95606 z m 8.54492,-33.15429 q 0,3.24707 1.77735,5.22949 1.81152,1.94824 4.85351,1.94824 3.042,0 4.68262,-1.91406 1.64063,-1.91406 1.64063,-5.26367 0,-2.76856 -1.77735,-4.68262 -1.74316,-1.91406 -4.5459,-1.91406 -2.93945,0 -4.78515,1.8457 -1.84571,1.8457 -1.84571,4.75098 z"
       style="font-style:normal;font-variant:normal;font-weight:bold;font-stretch:normal;font-family:'Trebuchet MS';-inkscape-font-specification:'Trebuchet MS Bold';text-align:center;text-anchor:middle"
       id="path3548"
       inkscape:connector-curvature="0" />
    <path
       d="m 436.37305,272.81951 -26.14746,0 q 0.23925,4.375 3.00781,6.80176 2.76855,2.42676 7.45117,2.42676 5.84473,0 8.88672,-3.04199 l 3.31543,6.52832 q -4.51172,3.65722 -13.4668,3.65722 -8.37402,0 -13.26172,-4.88769 -4.85351,-4.92188 -4.85351,-13.70606 0,-8.64746 5.33203,-14.01367 5.36621,-5.36621 12.85156,-5.36621 7.96387,0 12.7832,4.75098 4.81934,4.75097 4.81934,12.09961 0,1.57226 -0.71777,4.75097 z m -25.83985,-6.42578 17.97852,0 q -0.88867,-8.03222 -8.88672,-8.03222 -7.31445,0 -9.0918,8.03222 z"
       style="font-style:normal;font-variant:normal;font-weight:bold;font-stretch:normal;font-family:'Trebuchet MS';-inkscape-font-specification:'Trebuchet MS Bold';text-align:center;text-anchor:middle"
       id="path3550"
       inkscape:connector-curvature="0" />
    <path
       d="m 215.33301,332.08709 0,13.91113 16.54297,0 0,5.81055 -16.54297,0 0,18.04688 22.69531,0 0,6.15234 -29.53125,0 0,-50.07324 29.90723,0 0,6.15234 -23.07129,0 z"
       style="font-style:normal;font-variant:normal;font-weight:normal;font-stretch:normal;font-family:'Trebuchet MS';-inkscape-font-specification:'Trebuchet MS';text-align:center;text-anchor:middle"
       id="path3552"
       inkscape:connector-curvature="0" />
    <path
       d="m 245.95801,365.65154 0,-41.25488 6.49414,0 0,40.16113 q 0,2.93946 1.6748,4.64844 1.70899,1.67481 4.44336,1.67481 l 0,5.81054 q -12.6123,0 -12.6123,-11.04004 z"
       style="font-style:normal;font-variant:normal;font-weight:normal;font-stretch:normal;font-family:'Trebuchet MS';-inkscape-font-specification:'Trebuchet MS';text-align:center;text-anchor:middle"
       id="path3554"
       inkscape:connector-curvature="0" />
    <path
       d="m 272.78906,325.55877 q 1.67481,0 2.83692,1.19629 1.19629,1.16211 1.19629,2.80273 0,1.67481 -1.19629,2.8711 -1.16211,1.16211 -2.83692,1.16211 -1.64062,0 -2.83691,-1.16211 -1.16211,-1.19629 -1.16211,-2.8711 0,-1.6748 1.16211,-2.83691 1.16211,-1.16211 2.83691,-1.16211 z m -3.55469,50.44922 0,-31.1377 -5.02441,0 0,-5.46875 11.51856,0 0,36.60645 -6.49415,0 z"
       style="font-style:normal;font-variant:normal;font-weight:normal;font-stretch:normal;font-family:'Trebuchet MS';-inkscape-font-specification:'Trebuchet MS';text-align:center;text-anchor:middle"
       id="path3556"
       inkscape:connector-curvature="0" />
    <path
       d="m 309.25879,375.97381 0,-2.7002 q -3.38379,3.38379 -9.84375,3.38379 -6.87012,0 -11.14258,-4.92187 Q 284,366.81365 284,358.61053 q 0,-8.23731 4.92187,-14.04785 4.92188,-5.84473 11.72364,-5.84473 5.67383,0 8.61328,2.66602 l 0,-16.98731 6.49414,0 0,51.57715 -6.49414,0 z m 0,-28.0957 q -2.46094,-3.69141 -6.7334,-3.69141 -5.22949,0 -8.47656,3.89649 -3.21289,3.89648 -3.21289,9.9121 0,13.22754 12.03125,13.22754 1.53808,0 3.6914,-0.95703 2.15332,-0.99121 2.7002,-2.08496 l 0,-20.30273 z"
       style="font-style:normal;font-variant:normal;font-weight:normal;font-stretch:normal;font-family:'Trebuchet MS';-inkscape-font-specification:'Trebuchet MS';text-align:center;text-anchor:middle"
       id="path3558"
       inkscape:connector-curvature="0" />
    <path
       d="m 345.69434,371.80389 q -3.89649,4.88769 -11.92872,4.88769 -4.30664,0 -7.48535,-3.11035 -3.14453,-3.14453 -3.14453,-7.79297 0,-5.57129 4.85352,-9.39941 4.88769,-3.86231 12.4414,-3.86231 2.05079,0 4.64844,0.88868 0,-8.88672 -7.92969,-8.88672 -6.08398,0 -9.36523,3.28125 l -2.73438,-5.43457 q 1.84571,-1.50391 5.09278,-2.56348 3.28125,-1.09375 6.25488,-1.09375 7.96387,0 11.55274,3.62305 3.62304,3.62304 3.62304,11.51855 l 0,13.125 q 0,4.81934 2.8711,6.42578 l 0,3.24707 q -3.96485,0 -5.94727,-1.12793 -1.94824,-1.12793 -2.80273,-3.72558 z m -0.61524,-13.77442 q -3.07617,-0.68359 -4.30664,-0.68359 -4.92187,0 -8.03223,2.5293 -3.11035,2.52929 -3.11035,5.98144 0,5.70801 6.7334,5.70801 4.92188,0 8.71582,-4.68262 l 0,-8.85254 z"
       style="font-style:normal;font-variant:normal;font-weight:normal;font-stretch:normal;font-family:'Trebuchet MS';-inkscape-font-specification:'Trebuchet MS';text-align:center;text-anchor:middle"
       id="path3560"
       inkscape:connector-curvature="0" />
    <path
       d="m 409.98633,374.26483 q -4.95606,2.42675 -11.96289,2.42675 -7.14356,0 -11.04004,-4.2041 -3.89649,-4.23828 -3.89649,-11.96289 0,-3.96484 1.16211,-6.87012 1.19629,-2.90527 4.34082,-6.01562 -4.81933,-4.78516 -4.81933,-9.94629 0,-5.22949 3.93066,-8.9209 3.96485,-3.72558 10.5957,-3.72558 7.04102,0 10.86915,3.11035 l -2.83692,5.26367 q -3.89648,-3.24707 -6.97265,-3.24707 -9.0918,0 -9.0918,8.20312 0,4.44336 3.96484,7.51954 l 12.71485,0 0,-6.25489 6.49414,-2.49511 0,8.85253 8.51074,0 0,5.46875 -8.51074,0 0,11.2793 q 0,4.7168 1.26464,6.42578 1.26465,1.70899 4.375,1.70899 1.84571,0 4.34083,-1.26465 l 0.92285,6.0498 q -3.58887,1.02539 -8.20313,1.02539 -3.17871,0 -6.15234,-2.42675 z m -3.04199,-8.98926 0,-13.8086 -13.77442,0 q -3.24707,4.16993 -3.24707,8.75 0,10.66407 10.42481,10.66407 4.64843,0 6.97265,-1.67481 -0.37597,-1.57226 -0.37597,-3.93066 z"
       style="font-style:normal;font-variant:normal;font-weight:normal;font-stretch:normal;font-family:'Trebuchet MS';-inkscape-font-specification:'Trebuchet MS';text-align:center;text-anchor:middle"
       id="path3562"
       inkscape:connector-curvature="0" />
    <path
       d="m 218.8877,419.58709 0,13.91113 17.60253,0 0,5.81055 -17.60253,0 0,24.19922 -6.83594,0 0,-50.07324 30.93261,0 0,6.15234 -24.09667,0 z"
       style="font-style:normal;font-variant:normal;font-weight:normal;font-stretch:normal;font-family:'Trebuchet MS';-inkscape-font-specification:'Trebuchet MS';text-align:center;text-anchor:middle"
       id="path3564"
       inkscape:connector-curvature="0" />
    <path
       d="m 248.8291,453.15154 0,-41.25488 6.49414,0 0,40.16113 q 0,2.93946 1.67481,4.64844 1.70898,1.67481 4.44336,1.67481 l 0,5.81054 q -12.61231,0 -12.61231,-11.04004 z"
       style="font-style:normal;font-variant:normal;font-weight:normal;font-stretch:normal;font-family:'Trebuchet MS';-inkscape-font-specification:'Trebuchet MS';text-align:center;text-anchor:middle"
       id="path3566"
       inkscape:connector-curvature="0" />
    <path
       d="m 266.56836,445.11932 q 0,-8.47656 4.5459,-13.67188 4.58008,-5.22949 12.03125,-5.22949 7.86133,0 12.20215,5.02441 4.34082,4.99024 4.34082,13.87696 0,8.85254 -4.44336,13.97949 -4.44336,5.09277 -12.09961,5.09277 -7.82715,0 -12.20215,-5.16113 -4.375,-5.16113 -4.375,-13.91113 z m 6.83594,0 q 0,13.77441 9.74121,13.77441 4.5459,0 7.10937,-3.6914 2.59766,-3.69141 2.59766,-10.08301 0,-13.60352 -9.70703,-13.60352 -4.44336,0 -7.10938,3.62305 -2.63183,3.62305 -2.63183,9.98047 z"
       style="font-style:normal;font-variant:normal;font-weight:normal;font-stretch:normal;font-family:'Trebuchet MS';-inkscape-font-specification:'Trebuchet MS';text-align:center;text-anchor:middle"
       id="path3568"
       inkscape:connector-curvature="0" />
    <path
       d="m 326.31445,433.15643 q -2.11914,-1.46973 -4.27246,-1.46973 -3.45215,0 -6.0498,3.17871 -2.56348,3.17871 -2.56348,7.65625 l 0,20.98633 -6.49414,0 0,-36.60645 6.49414,0 0,5.84473 q 3.55469,-6.52832 10.56152,-6.52832 1.74317,0 5.02442,0.61524 l -2.7002,6.32324 z"
       style="font-style:normal;font-variant:normal;font-weight:normal;font-stretch:normal;font-family:'Trebuchet MS';-inkscape-font-specification:'Trebuchet MS';text-align:center;text-anchor:middle"
       id="path3570"
       inkscape:connector-curvature="0" />
    <path
       d="m 340.32812,413.05877 q 1.67481,0 2.83692,1.19629 1.19629,1.16211 1.19629,2.80273 0,1.67481 -1.19629,2.8711 -1.16211,1.16211 -2.83692,1.16211 -1.64062,0 -2.83691,-1.16211 -1.16211,-1.19629 -1.16211,-2.8711 0,-1.6748 1.16211,-2.83691 1.16211,-1.16211 2.83691,-1.16211 z m -3.55468,50.44922 0,-31.1377 -5.02442,0 0,-5.46875 11.51856,0 0,36.60645 -6.49414,0 z"
       style="font-style:normal;font-variant:normal;font-weight:normal;font-stretch:normal;font-family:'Trebuchet MS';-inkscape-font-specification:'Trebuchet MS';text-align:center;text-anchor:middle"
       id="path3572"
       inkscape:connector-curvature="0" />
    <path
       d="m 374.26855,459.30389 q -3.89648,4.88769 -11.92871,4.88769 -4.30664,0 -7.48535,-3.11035 -3.14453,-3.14453 -3.14453,-7.79297 0,-5.57129 4.85352,-9.39941 4.88769,-3.86231 12.4414,-3.86231 2.05078,0 4.64844,0.88868 0,-8.88672 -7.92969,-8.88672 -6.08398,0 -9.36523,3.28125 l -2.73438,-5.43457 q 1.84571,-1.50391 5.09278,-2.56348 3.28125,-1.09375 6.25488,-1.09375 7.96387,0 11.55273,3.62305 3.62305,3.62304 3.62305,11.51855 l 0,13.125 q 0,4.81934 2.87109,6.42578 l 0,3.24707 q -3.96484,0 -5.94726,-1.12793 -1.94824,-1.12793 -2.80274,-3.72558 z m -0.61523,-13.77442 q -3.07617,-0.68359 -4.30664,-0.68359 -4.92188,0 -8.03223,2.5293 -3.11035,2.52929 -3.11035,5.98144 0,5.70801 6.7334,5.70801 4.92187,0 8.71582,-4.68262 l 0,-8.85254 z"
       style="font-style:normal;font-variant:normal;font-weight:normal;font-stretch:normal;font-family:'Trebuchet MS';-inkscape-font-specification:'Trebuchet MS';text-align:center;text-anchor:middle"
       id="path3574"
       inkscape:connector-curvature="0" />
    <path
       d="m 412.8916,463.50799 0,-21.29395 q 0,-5.84472 -1.77734,-8.16894 -1.74317,-2.3584 -5.87891,-2.3584 -2.22168,0 -4.64844,1.33301 -2.42675,1.33301 -3.72558,3.28125 l 0,27.20703 -6.49414,0 0,-36.60645 4.44336,0 2.05078,4.7168 q 3.21289,-5.40039 10.49316,-5.40039 12.03125,0 12.03125,14.62891 l 0,22.66113 -6.49414,0 z"
       style="font-style:normal;font-variant:normal;font-weight:normal;font-stretch:normal;font-family:'Trebuchet MS';-inkscape-font-specification:'Trebuchet MS';text-align:center;text-anchor:middle"
       id="path3576"
       inkscape:connector-curvature="0" />
  </g>
  <text
     xml:space="preserve"
     style="font-style:normal;font-weight:normal;font-size:40px;line-height:125%;font-family:sans-serif;letter-spacing:0px;word-spacing:0px;fill:#000000;fill-opacity:1;stroke:none;stroke-width:1px;stroke-linecap:butt;stroke-linejoin:miter;stroke-opacity:1"
     x="149.46619"
     y="241.28114"
     id="text3436"
     sodipodi:linespacing="125%"><tspan
       sodipodi:role="line"
       id="tspan3438"
       x="149.46619"
       y="241.28114" /></text>
  <text
     xml:space="preserve"
     style="font-style:normal;font-weight:normal;font-size:40px;line-height:125%;font-family:sans-serif;letter-spacing:0px;word-spacing:0px;fill:#000000;fill-opacity:1;stroke:none;stroke-width:1px;stroke-linecap:butt;stroke-linejoin:miter;stroke-opacity:1"
     x="245.55161"
     y="178.29181"
     id="text3440"
     sodipodi:linespacing="125%"><tspan
       sodipodi:role="line"
       id="tspan3442"
       x="245.55161"
       y="178.29181"></tspan></text>
  <flowRoot
     xml:space="preserve"
     id="flowRoot3446"
     style="fill:black;stroke:none;stroke-opacity:1;stroke-width:1px;stroke-linejoin:miter;stroke-linecap:butt;fill-opacity:1;font-family:sans-serif;font-style:normal;font-weight:normal;font-size:40px;line-height:125%;letter-spacing:0px;word-spacing:0px"><flowRegion
       id="flowRegion3448"><rect
         id="rect3450"
         width="93.636337"
         height="116.17841"
         x="76.296272"
         y="34.713974" /></flowRegion><flowPara
       id="flowPara3452"></flowPara></flowRoot>  <text
     xml:space="preserve"
     style="font-style:normal;font-weight:normal;font-size:40px;line-height:125%;font-family:sans-serif;letter-spacing:0px;word-spacing:0px;fill:#000000;fill-opacity:1;stroke:none;stroke-width:1px;stroke-linecap:butt;stroke-linejoin:miter;stroke-opacity:1"
     x="858.33307"
     y="546.24579"
     id="text3456"
     sodipodi:linespacing="125%"><tspan
       sodipodi:role="line"
       id="tspan3458"
       x="858.33307"
       y="546.24579" /></text>
</svg>
